<svg width="128" height="128" viewBox="0 0 128 128" fill="none" xmlns="http://www.w3.org/2000/svg">
  <defs>
    <filter id="moonGlow" x="-30%" y="-30%" width="160%" height="160%">
      <feGaussianBlur stdDeviation="4" result="blur"/>
      <feColorMatrix in="blur" type="matrix" values="0 0 0 0 0.42 0 0 0 0 0.45 0 0 0 0 1 0 0 0 0.85 0"/>
      <feBlend in="SourceGraphic"/>
    </filter>
    <linearGradient id="moonGrad" x1="35" y1="24" x2="92" y2="104" gradientUnits="userSpaceOnUse">
      <stop stop-color="#151A4E"/>
      <stop offset="1" stop-color="#090B1E"/>
    </linearGradient>
    <linearGradient id="ringGrad" x1="19" y1="14" x2="108" y2="112" gradientUnits="userSpaceOnUse">
      <stop stop-color="#C7CCFF"/>
      <stop offset="1" stop-color="#6D76FF"/>
    </linearGradient>
  </defs>

  <circle cx="64" cy="64" r="47" stroke="url(#ringGrad)" stroke-width="4" stroke-linecap="round" stroke-dasharray="225 36" filter="url(#moonGlow)"/>
  <circle cx="98" cy="35" r="4" fill="#8E96FF" filter="url(#moonGlow)"/>
  <circle cx="33" cy="97" r="4" fill="#8E96FF" filter="url(#moonGlow)"/>

  <path
    d="M86.6 91.4C71.6 105.5 47.8 104.3 34.2 88.7C20.3 72.8 22.1 48.3 38.1 34.8C49 25.6 63.2 23.7 75.4 28.5C61.6 31.6 50.8 43.2 48.8 58C46.4 75.4 58.5 91.4 75.9 93.8C79.7 94.3 83.3 94.1 86.6 91.4Z"
    fill="url(#moonGrad)"
    stroke="#B9BFFF"
    stroke-width="4"
    stroke-linejoin="round"
    filter="url(#moonGlow)"
  />

  <path d="M91 53L95 62L104 66L95 70L91 79L87 70L78 66L87 62L91 53Z" fill="#121650" stroke="#B9BFFF" stroke-width="3" stroke-linejoin="round" filter="url(#moonGlow)"/>
</svg>
